<?xml version="1.0" encoding="UTF-8"?>
<svg id="Layer_2" data-name="Layer 2" xmlns="http://www.w3.org/2000/svg" viewBox="0 0 552.1 196.55">
  <defs>
    <style>
      .cls-1 {
        fill: #fff;
      }
    </style>
  </defs>
  <g id="Camada_1" data-name="Camada 1">
    <g>
      <g>
        <path class="cls-1" d="M97.37,146.61c-.01.26.12.54.38.79.52.5,1.4.77,2.3.71.99-.08,1.87-.46,2.3-.99.2-.24.28-.49.24-.74-.13-.86-1.35-1.49-2.67-1.39-1.44.1-2.51.78-2.55,1.61Z"/>
        <path class="cls-1" d="M85.18,146.64c1.1.38,2.26.33,3.05-.12.42-.24.7-.56.77-.92.22-1.03-.8-2.17-2.49-2.78-1.7-.46-3.24-.12-3.7.84-.16.33-.14.75.06,1.19.37.82,1.23,1.48,2.31,1.78Z"/>
        <path class="cls-1" d="M68.81,135.87c-.01,1.08.65,2.33,1.72,3.25,0,0,0,0,0,0,1.09.94,2.42,1.42,3.56,1.27.43-.06,1.02-.23,1.37-.75.77-1.11.16-2.97-1.4-4.32-.98-.84-2.14-1.29-3.13-1.29-.6,0-1.15.16-1.56.51-.46.38-.56.93-.56,1.34Z"/>
        <path class="cls-1" d="M62.42,128.06c.75.24,1.46.19,1.99-.14,0,0,0,0,0,0,1.48-.9,1.86-3.24.9-5.57-.77-1.63-2.27-3.39-4.08-3.39-.2,0-.41.02-.62.07-.63.14-1.18.62-1.55,1.35-.62,1.25-.58,2.9.11,4.41.68,1.63,1.9,2.84,3.25,3.28Z"/>
        <path class="cls-1" d="M72.55,5.84c-.14.28-.17.54-.08.78.29.79,1.61,1.11,2.9.71,1.34-.42,2.22-1.36,2.01-2.12-.08-.32-.36-.53-.57-.65-.35-.19-.79-.29-1.26-.29-.35,0-.73.05-1.09.17-.88.28-1.62.81-1.91,1.41Z"/>
        <path class="cls-1" d="M59.94,10.71c-.12.39-.1.74.07,1.04.52.93,2.27,1.11,3.75.4,0,0,0,0,0,0,1.57-.73,2.47-2.06,2.06-3.03-.17-.4-.56-.62-.85-.73-.32-.12-.68-.18-1.07-.18-.61,0-1.27.15-1.88.43-1.03.5-1.84,1.29-2.08,2.07Z"/>
        <path class="cls-1" d="M86.5,4.45c1.15-.18,1.87-.92,1.8-1.47-.02-.18-.13-.34-.32-.48-.32-.24-.8-.37-1.33-.37-.18,0-.36.01-.54.04-.71.1-1.34.43-1.65.85-.1.14-.21.36-.16.61.11.52,1.03.98,2.2.81Z"/>
        <path class="cls-1" d="M46.97,18.19c-.06.4-.06.97.31,1.43.85,1.03,2.87.93,4.71-.24,1.77-1.24,2.57-3.02,1.86-4.14-.32-.5-.87-.71-1.28-.79-.22-.04-.45-.07-.68-.07-.92,0-1.94.34-2.83.96-1.15.74-1.93,1.8-2.09,2.86Z"/>
        <path class="cls-1" d="M83.84,82.88c-.39-.43-1.01-.66-1.77-.66-.04,0-.08,0-.12,0-1.45.04-3.01.9-4.07,2.24-1.15,1.36-1.7,3.02-1.44,4.35.1.51.36,1.19,1.04,1.55,1.54.84,3.87.03,5.54-1.92,1.25-1.62,2.22-4.05.82-5.57Z"/>
        <path class="cls-1" d="M73.89,97.79c-.16-.06-.34-.09-.52-.09-.32,0-.67.09-1.01.27-.98.52-1.8,1.68-2.13,3.03-.33,1.34-.15,2.66.48,3.55.36.51.85.81,1.37.86,1.38.11,2.8-1.3,3.31-3.29.48-1.97-.17-3.84-1.49-4.33Z"/>
        <path class="cls-1" d="M76,130.36c.52.78,1.27,1.34,1.95,1.46.23.04.57.05.85-.16,0,0,0,0,0,0,.72-.52.73-1.85.01-2.9-.62-.93-1.46-1.48-2.17-1.48-.19,0-.36.04-.52.11-.27.12-.47.39-.57.75-.19.67-.02,1.5.45,2.21Z"/>
        <path class="cls-1" d="M74.45,116.32c-.32-1.35-1.19-2.73-2.41-2.73-.04,0-.07,0-.11,0h0c-.41.02-.81.27-1.12.69-.53.71-.72,1.74-.49,2.75.17,1.09.71,2,1.47,2.47.44.28.9.37,1.29.25,1.06-.31,1.62-1.73,1.37-3.44Z"/>
        <path class="cls-1" d="M163.29,23.75c1.38.53,2.87.26,3.25-.59.12-.26.11-.56-.02-.88-.27-.66-1-1.28-1.92-1.63-.91-.37-1.85-.4-2.54-.1-.25.11-.58.32-.71.69-.3.81.58,1.96,1.94,2.51Z"/>
        <path class="cls-1" d="M128.85,14.76c-.07,1.46,1.76,2.83,4.01,3,0,0,0,0,0,0,2.34.2,4.35-.77,4.57-2.22.1-.62-.2-1.14-.46-1.48-.72-.91-2.04-1.53-3.54-1.66-.19-.01-.37-.02-.56-.02-1.36,0-2.58.38-3.34,1.05-.44.39-.67.84-.69,1.33Z"/>
        <path class="cls-1" d="M114.89,18.26c2.91-.25,5.1-1.81,5.09-3.61,0-.8-.48-1.41-.89-1.78-.94-.86-2.39-1.35-3.98-1.35-.22,0-.45,0-.68.03-1.85.09-3.5.82-4.43,1.95-.51.61-.73,1.26-.65,1.89.23,1.78,2.6,3.02,5.54,2.88Z"/>
        <path class="cls-1" d="M149,19.82c1.87.4,3.59-.13,3.92-1.22.15-.47-.02-.92-.19-1.22-.46-.8-1.46-1.45-2.6-1.7-1.22-.27-2.46-.13-3.24.37-.27.17-.61.48-.71.93-.24,1.14,1.05,2.44,2.82,2.84Z"/>
        <path class="cls-1" d="M115.64,141.28c.3.2.86.35,1.54.18.75-.21,1.18-.6,1.34-.9.11-.21.06-.34.05-.39-.12-.33-.6-.59-1.21-.59-.19,0-.4.03-.61.08-.86.23-1.46.77-1.39,1.23.02.14.12.27.28.38Z"/>
        <path class="cls-1" d="M94.79,39.22c-.39-.18-.99-.16-1.56.06-.57.22-1.03.6-1.2,1-.07.17-.08.32-.03.44.17.41.99.62,1.88.28.89-.34,1.35-1.05,1.21-1.48-.04-.12-.15-.23-.31-.3Z"/>
        <path class="cls-1" d="M104.94,140.84c-.05.19.01.42.18.66.26.37.85.79,1.71.86.92.14,1.61-.14,1.96-.44.21-.18.33-.39.33-.58h0c0-.64-.81-1.23-1.95-1.41-.11,0-.22-.01-.33-.01-.98,0-1.76.36-1.91.93Z"/>
        <path class="cls-1" d="M86.25,43.2c-.09-.18-.26-.31-.5-.4-.17-.06-.37-.09-.58-.09-.44,0-.94.12-1.41.36,0,0,0,0,0,0-.69.34-1.21.87-1.35,1.38-.07.23-.05.43.05.6.32.52,1.43.72,2.53.17.97-.49,1.56-1.44,1.27-2.02Z"/>
        <path class="cls-1" d="M68.45,56.64c0-.34-.05-.82-.41-1.19-.32-.34-.76-.42-1.08-.43-.02,0-.04,0-.07,0-.89,0-1.95.49-2.8,1.3,0,0-.01.01-.02.02-.78.69-1.24,1.63-1.23,2.52,0,.54.19.98.5,1.24,1.03.85,2.72,0,3.86-.98.75-.7,1.22-1.63,1.24-2.47Z"/>
        <path class="cls-1" d="M77.16,48.38c-.16-.24-.47-.41-.87-.48-.74-.13-1.62.11-2.34.64-.76.59-1.27,1.39-1.34,2.08-.03.33.04.61.21.81.58.69,2,.55,3.1-.31,1.03-.77,1.79-1.95,1.25-2.75Z"/>
        <path class="cls-1" d="M97.52,136.37c-.59-.34-1.22-.5-1.77-.5s-1.05.17-1.33.52c-.22.26-.21.59-.17.83.13.7.72,1.44,1.56,1.92.83.48,1.78.63,2.49.39.25-.08.58-.25.73-.59.33-.78-.31-1.88-1.5-2.56Z"/>
        <path class="cls-1" d="M88.65,132.57c.49.05.91-.05,1.18-.31,0,0,0,0,0,0,.83-.75.75-2.31-.18-3.71-.7-.94-1.76-1.76-2.78-1.76-.24,0-.47.04-.7.14-.36.15-.64.51-.77,1-.25.89,0,1.96.67,2.87.67.99,1.65,1.66,2.58,1.77Z"/>
        <path class="cls-1" d="M172.33,107.27s0,0,0-.01c-5.06-26.71-27.39-43.61-45.99-48-8.43-2.14-16.96-2.58-25.37-1.3-10.05,1.53-19.16,5.48-25.65,11.11-.87.72-1.73,1.5-2.74,2.45-10.09,9.58-13.3,19.92-14.31,25.23-.72,3.61-1.05,7.05-.95,9.96.02.54.38.99.91,1.12.35.09.71.02,1-.19.28-.2.45-.5.48-.84,1.23-14.81,10.49-28.88,23.6-35.83,10.32-5.66,23.62-7.17,36.49-4.13.29.07.48.35.44.64-.04.29-.31.52-.6.5-7.27-.27-13.09,1.03-16.68,2.18-3.67,1.15-6.99,2.55-9.61,4.05-.43.25-.64.74-.52,1.23.1.39.3.64.59.79.3.15.65.15.97.01,14.05-6.15,31.26-5.09,43.82,2.71,1.71,1.04,3.39,2.22,4.97,3.52.23.19.28.53.11.78-.17.25-.5.32-.77.17-6.08-3.52-13.05-5.62-19.61-5.92-13.4-.83-26.56,4.38-33.53,13.26-6.92,8.46-7.87,16.83-7.82,21.07,0,3.24.4,5.55.73,6.92.07.28.31.48.61.5.2,0,.38-.06.51-.2.14-.15.21-.36.18-.57-1.21-10.49,3.12-21.1,11.31-27.7,7.74-6.4,19-9,30.12-6.96,21.98,3.77,33.59,25.65,30.63,43.71-2.15,18.31-16.34,34.06-34.51,38.28-16.1,4.54-34.12,1.66-48.2-7.69-27.18-18.14-28.46-49.88-24.94-65.77,1.86-8.43,4.92-16.28,8.85-22.69.12-.2.15-.45.08-.67-.07-.23-.23-.41-.45-.5-.4-.18-.82-.07-1.05.24-12.88,17.45-17.26,39.99-11.71,60.29,4.43,19.67,20.39,36.91,40.65,43.95.29.1.45.41.37.71-.09.3-.39.47-.69.4-17.11-4.04-31.8-14.26-40.31-28.06-13.19-19.22-16.74-44.19-9.48-66.76,2.21-7.13,5.5-13.98,9.8-20.34,4.63-6.85,10.35-13.07,17.01-18.5,3.25-2.65,6.65-5.06,10.1-7.17,8.79-5.42,18.34-9.55,28.36-12.29,1.12-.31,1.99-1.11,2.37-2.21.38-1.1.2-2.27-.49-3.2-.84-1.14-2.18-1.67-3.46-1.42-12.79,2.53-24.7,7.11-35.41,13.59-1.45.82-2.94,1.73-4.56,2.79-7.43,4.85-14.12,10.87-19.88,17.88-14.44,17.57-21.88,39.93-20.41,61.34.97,20.46,9.68,40.62,23.88,55.32.21.22.22.56.02.79-.2.23-.55.26-.78.07-2.66-2.05-5.15-4.22-7.41-6.47-14.4-14.04-22.93-32.92-24-53.17-1.37-19.74,3.43-35.75,7.69-45.7,6.19-13.91,13.28-23.32,18.15-28.76,1.94-2.17,3.49-3.68,4.24-4.41.38-.37.47-.97.22-1.44-.17-.32-.48-.54-.83-.61-.08-.01-.15-.02-.23-.02-.28,0-.55.09-.76.27l-.41.34C12.53,46.55-1.75,79.13.17,110.97c.99,32.56,22.27,63.47,52.95,76.92,30.02,13.9,66.24,10.86,90.12-7.54,22.99-17.03,34.67-46.4,29.08-73.08Z"/>
      </g>
      <g>
        <path class="cls-1" d="M200.66,9c0,2.51-.85,4.44-2.55,5.79-1.7,1.35-4.14,2.02-7.3,2.02h-2.9v9.74h-2.86V1.78h6.39c6.16,0,9.23,2.41,9.23,7.22ZM187.91,14.33h2.58c2.54,0,4.38-.41,5.51-1.24,1.13-.82,1.7-2.15,1.7-3.96,0-1.64-.53-2.86-1.6-3.66-1.07-.8-2.73-1.2-4.99-1.2h-3.2v10.06Z"/>
        <path class="cls-1" d="M213.82,7.64c.82,0,1.56.07,2.21.2l-.39,2.61c-.76-.17-1.44-.25-2.02-.25-1.49,0-2.77.61-3.83,1.83-1.06,1.22-1.59,2.74-1.59,4.56v9.96h-2.8V7.98h2.31l.32,3.44h.13c.69-1.21,1.51-2.14,2.48-2.8.97-.66,2.03-.98,3.18-.98Z"/>
        <path class="cls-1" d="M235.43,17.25c0,3.03-.76,5.39-2.27,7.09-1.52,1.7-3.61,2.55-6.29,2.55-1.65,0-3.12-.39-4.4-1.17-1.28-.78-2.27-1.9-2.97-3.36-.7-1.46-1.04-3.16-1.04-5.12,0-3.03.75-5.39,2.26-7.07,1.51-1.69,3.59-2.53,6.27-2.53s4.64.86,6.16,2.59c1.52,1.73,2.28,4.07,2.28,7.01ZM221.36,17.25c0,2.37.47,4.18,1.42,5.42.94,1.24,2.33,1.86,4.16,1.86s3.22-.62,4.17-1.86c.95-1.24,1.42-3.05,1.42-5.43s-.47-4.15-1.42-5.38c-.95-1.23-2.35-1.84-4.2-1.84s-3.21.6-4.15,1.81c-.93,1.21-1.4,3.01-1.4,5.41Z"/>
        <path class="cls-1" d="M255.44,7.98v1.78l-3.42.41c.31.4.6.91.84,1.55.25.64.37,1.36.37,2.16,0,1.82-.62,3.27-1.85,4.35-1.24,1.08-2.93,1.63-5.09,1.63-.55,0-1.07-.05-1.55-.14-1.19.63-1.79,1.43-1.79,2.39,0,.51.21.88.62,1.13.42.24,1.13.36,2.14.36h3.27c2,0,3.54.42,4.61,1.27,1.07.85,1.61,2.08,1.61,3.69,0,2.06-.82,3.62-2.46,4.7-1.64,1.08-4.03,1.62-7.18,1.62-2.42,0-4.28-.45-5.59-1.36-1.31-.9-1.96-2.18-1.96-3.83,0-1.13.36-2.11,1.08-2.93.72-.82,1.73-1.38,3.03-1.68-.47-.21-.87-.55-1.19-1-.32-.45-.48-.98-.48-1.58,0-.68.18-1.27.54-1.78.36-.51.93-1,1.7-1.47-.95-.4-1.73-1.07-2.33-2.02-.6-.95-.9-2.03-.9-3.25,0-2.03.61-3.6,1.82-4.7,1.21-1.1,2.93-1.65,5.16-1.65.97,0,1.84.11,2.61.34h6.39ZM240.72,29.67c0,1.01.42,1.77,1.26,2.29.84.52,2.05.78,3.62.78,2.35,0,4.09-.35,5.22-1.06,1.13-.71,1.69-1.66,1.69-2.87,0-1.01-.31-1.7-.93-2.09-.62-.39-1.78-.58-3.49-.58h-3.35c-1.27,0-2.26.3-2.97.91-.71.61-1.06,1.49-1.06,2.63ZM242.23,13.93c0,1.3.36,2.28,1.1,2.95.73.67,1.75,1,3.05,1,2.73,0,4.09-1.33,4.09-4s-1.38-4.19-4.15-4.19c-1.31,0-2.33.36-3.03,1.07-.71.71-1.06,1.77-1.06,3.17Z"/>
        <path class="cls-1" d="M267.66,7.64c.82,0,1.56.07,2.21.2l-.39,2.61c-.76-.17-1.44-.25-2.02-.25-1.49,0-2.77.61-3.83,1.83-1.06,1.22-1.59,2.74-1.59,4.56v9.96h-2.8V7.98h2.31l.32,3.44h.13c.69-1.21,1.51-2.14,2.48-2.8.97-.66,2.03-.98,3.18-.98Z"/>
        <path class="cls-1" d="M284.68,26.55l-.56-2.64h-.13c-.92,1.16-1.84,1.95-2.76,2.36-.92.41-2.06.62-3.43.62-1.83,0-3.27-.47-4.31-1.42-1.04-.95-1.56-2.3-1.56-4.05,0-3.75,2.98-5.72,8.95-5.9l3.13-.1v-1.15c0-1.46-.31-2.53-.94-3.23-.62-.69-1.62-1.04-2.99-1.04-1.54,0-3.28.47-5.22,1.42l-.86-2.15c.91-.5,1.91-.89,2.99-1.17,1.08-.28,2.17-.42,3.26-.42,2.2,0,3.83.49,4.89,1.47,1.06.98,1.59,2.56,1.59,4.73v12.67h-2.07ZM278.36,24.57c1.74,0,3.11-.48,4.1-1.44.99-.96,1.49-2.3,1.49-4.03v-1.68l-2.8.12c-2.22.08-3.83.43-4.81,1.04-.98.62-1.47,1.57-1.47,2.87,0,1.02.31,1.79.92,2.32.61.53,1.47.8,2.57.8Z"/>
        <path class="cls-1" d="M316.06,26.55v-12.08c0-1.48-.31-2.59-.94-3.33-.63-.74-1.61-1.11-2.93-1.11-1.74,0-3.03.5-3.86,1.51-.83,1.01-1.25,2.55-1.25,4.64v10.37h-2.8v-12.08c0-1.48-.31-2.59-.94-3.33-.63-.74-1.61-1.11-2.95-1.11-1.75,0-3.04.53-3.85,1.58-.81,1.06-1.22,2.79-1.22,5.19v9.74h-2.8V7.98h2.27l.45,2.54h.13c.53-.9,1.27-1.61,2.23-2.12.96-.51,2.04-.76,3.23-.76,2.89,0,4.77,1.05,5.66,3.15h.13c.55-.97,1.35-1.74,2.39-2.3,1.04-.56,2.24-.85,3.57-.85,2.09,0,3.65.54,4.69,1.62,1.04,1.08,1.56,2.8,1.56,5.18v12.12h-2.8Z"/>
        <path class="cls-1" d="M335.97,26.55l-.56-2.64h-.13c-.92,1.16-1.84,1.95-2.76,2.36-.92.41-2.06.62-3.43.62-1.83,0-3.27-.47-4.31-1.42-1.04-.95-1.56-2.3-1.56-4.05,0-3.75,2.98-5.72,8.95-5.9l3.13-.1v-1.15c0-1.46-.31-2.53-.94-3.23-.62-.69-1.62-1.04-2.99-1.04-1.54,0-3.28.47-5.22,1.42l-.86-2.15c.91-.5,1.91-.89,2.99-1.17,1.08-.28,2.17-.42,3.26-.42,2.2,0,3.83.49,4.89,1.47,1.06.98,1.59,2.56,1.59,4.73v12.67h-2.07ZM329.65,24.57c1.74,0,3.11-.48,4.1-1.44.99-.96,1.49-2.3,1.49-4.03v-1.68l-2.8.12c-2.22.08-3.83.43-4.81,1.04-.98.62-1.47,1.57-1.47,2.87,0,1.02.31,1.79.92,2.32.61.53,1.47.8,2.57.8Z"/>
        <path class="cls-1" d="M365.34,24.06h-.15c-1.29,1.89-3.22,2.83-5.8,2.83-2.42,0-4.29-.83-5.64-2.49-1.34-1.66-2.01-4.02-2.01-7.08s.67-5.44,2.02-7.13c1.35-1.69,3.22-2.54,5.63-2.54s4.43.91,5.76,2.74h.22l-.12-1.34-.07-1.3V.19h2.8v26.37h-2.27l-.37-2.49ZM359.75,24.54c1.91,0,3.29-.52,4.15-1.57.86-1.04,1.29-2.73,1.29-5.06v-.59c0-2.63-.44-4.51-1.31-5.63-.87-1.12-2.26-1.69-4.17-1.69-1.64,0-2.9.64-3.77,1.92-.87,1.28-1.31,3.09-1.31,5.43s.43,4.16,1.3,5.37c.86,1.21,2.13,1.81,3.81,1.81Z"/>
        <path class="cls-1" d="M381.72,26.89c-2.73,0-4.88-.84-6.46-2.51-1.58-1.67-2.37-3.99-2.37-6.96s.73-5.37,2.2-7.13c1.47-1.76,3.43-2.64,5.91-2.64,2.31,0,4.15.77,5.49,2.3,1.35,1.53,2.02,3.55,2.02,6.06v1.78h-12.72c.06,2.18.6,3.84,1.64,4.96,1.04,1.13,2.5,1.69,4.39,1.69,1.99,0,3.95-.42,5.9-1.25v2.51c-.99.43-1.92.74-2.81.92-.88.19-1.95.28-3.19.28ZM380.96,10c-1.48,0-2.67.49-3.55,1.46-.88.97-1.4,2.32-1.56,4.03h9.66c0-1.77-.39-3.13-1.18-4.08-.79-.94-1.91-1.41-3.37-1.41Z"/>
        <path class="cls-1" d="M410.57,10.17h-4.7v16.38h-2.8V10.17h-3.3v-1.27l3.3-1.02v-1.03c0-4.56,1.98-6.85,5.95-6.85.98,0,2.12.2,3.44.59l-.72,2.25c-1.08-.35-2-.53-2.76-.53-1.06,0-1.84.35-2.34,1.06-.51.71-.76,1.84-.76,3.4v1.2h4.7v2.19Z"/>
        <path class="cls-1" d="M429.88,17.25c0,3.03-.76,5.39-2.27,7.09-1.52,1.7-3.61,2.55-6.29,2.55-1.65,0-3.12-.39-4.4-1.17-1.28-.78-2.27-1.9-2.97-3.36-.7-1.46-1.04-3.16-1.04-5.12,0-3.03.75-5.39,2.26-7.07,1.51-1.69,3.59-2.53,6.27-2.53s4.64.86,6.16,2.59c1.52,1.73,2.28,4.07,2.28,7.01ZM415.81,17.25c0,2.37.47,4.18,1.42,5.42.94,1.24,2.33,1.86,4.16,1.86s3.22-.62,4.17-1.86c.95-1.24,1.42-3.05,1.42-5.43s-.47-4.15-1.42-5.38c-.95-1.23-2.35-1.84-4.2-1.84s-3.21.6-4.15,1.81c-.93,1.21-1.4,3.01-1.4,5.41Z"/>
        <path class="cls-1" d="M443.21,7.64c.82,0,1.56.07,2.21.2l-.39,2.61c-.76-.17-1.44-.25-2.02-.25-1.49,0-2.77.61-3.83,1.83-1.06,1.22-1.59,2.74-1.59,4.56v9.96h-2.8V7.98h2.31l.32,3.44h.13c.69-1.21,1.51-2.14,2.48-2.8.97-.66,2.03-.98,3.18-.98Z"/>
        <path class="cls-1" d="M472.41,26.55v-12.08c0-1.48-.31-2.59-.94-3.33-.63-.74-1.61-1.11-2.93-1.11-1.74,0-3.03.5-3.86,1.51-.83,1.01-1.25,2.55-1.25,4.64v10.37h-2.8v-12.08c0-1.48-.31-2.59-.94-3.33-.63-.74-1.61-1.11-2.95-1.11-1.75,0-3.04.53-3.85,1.58-.81,1.06-1.22,2.79-1.22,5.19v9.74h-2.8V7.98h2.27l.45,2.54h.13c.53-.9,1.27-1.61,2.23-2.12.96-.51,2.04-.76,3.23-.76,2.89,0,4.77,1.05,5.66,3.15h.13c.55-.97,1.35-1.74,2.39-2.3,1.04-.56,2.24-.85,3.57-.85,2.09,0,3.65.54,4.69,1.62,1.04,1.08,1.56,2.8,1.56,5.18v12.12h-2.8Z"/>
        <path class="cls-1" d="M492.33,26.55l-.56-2.64h-.13c-.92,1.16-1.84,1.95-2.76,2.36-.92.41-2.06.62-3.43.62-1.83,0-3.27-.47-4.31-1.42-1.04-.95-1.56-2.3-1.56-4.05,0-3.75,2.98-5.72,8.95-5.9l3.13-.1v-1.15c0-1.46-.31-2.53-.94-3.23-.62-.69-1.62-1.04-2.99-1.04-1.54,0-3.28.47-5.22,1.42l-.86-2.15c.91-.5,1.91-.89,2.99-1.17,1.08-.28,2.17-.42,3.26-.42,2.2,0,3.83.49,4.89,1.47,1.06.98,1.59,2.56,1.59,4.73v12.67h-2.07ZM486.01,24.57c1.74,0,3.11-.48,4.1-1.44.99-.96,1.49-2.3,1.49-4.03v-1.68l-2.8.12c-2.22.08-3.83.43-4.81,1.04-.98.62-1.47,1.57-1.47,2.87,0,1.02.31,1.79.92,2.32.61.53,1.47.8,2.57.8Z"/>
        <path class="cls-1" d="M507.54,26.89c-2.67,0-4.74-.83-6.21-2.48-1.47-1.65-2.2-4-2.2-7.02s.74-5.51,2.23-7.2c1.49-1.69,3.61-2.54,6.36-2.54.89,0,1.77.1,2.66.29.89.19,1.58.42,2.09.68l-.86,2.39c-.62-.25-1.29-.45-2.02-.62-.73-.16-1.38-.25-1.94-.25-3.75,0-5.63,2.41-5.63,7.22,0,2.28.46,4.03,1.37,5.25.92,1.22,2.27,1.83,4.07,1.83,1.54,0,3.12-.33,4.73-1v2.49c-1.24.64-2.79.97-4.67.97ZM510.04,31.45c0,1.1-.43,1.94-1.29,2.54-.86.6-2.13.9-3.82.9-.57,0-1.11-.05-1.62-.15v-1.8c.51.09,1.09.14,1.75.14.89,0,1.56-.11,2.01-.34.45-.23.68-.64.68-1.25,0-.49-.22-.88-.67-1.18-.44-.3-1.28-.55-2.5-.74l1.48-3.02h1.85l-.93,1.95c2.02.44,3.03,1.42,3.03,2.95Z"/>
        <path class="cls-1" d="M527.95,26.55l-.56-2.64h-.13c-.92,1.16-1.84,1.95-2.76,2.36-.92.41-2.06.62-3.43.62-1.83,0-3.27-.47-4.31-1.42-1.04-.95-1.56-2.3-1.56-4.05,0-3.75,2.98-5.72,8.95-5.9l3.13-.1v-1.15c0-1.46-.31-2.53-.94-3.23-.62-.69-1.62-1.04-2.99-1.04-1.54,0-3.28.47-5.22,1.42l-.86-2.15c.91-.5,1.91-.89,2.99-1.17,1.08-.28,2.17-.42,3.26-.42,2.2,0,3.83.49,4.89,1.47,1.06.98,1.59,2.56,1.59,4.73v12.67h-2.07ZM525.78,5.49c-.48,0-.95-.1-1.42-.31-.46-.21-.91-.44-1.36-.69-.44-.25-.87-.49-1.28-.69-.41-.21-.81-.31-1.19-.31-.56,0-.99.17-1.27.51-.29.34-.51.85-.67,1.54h-1.65c.15-1.37.54-2.44,1.19-3.21.65-.77,1.48-1.16,2.5-1.16.52,0,1.02.1,1.5.31.48.21.94.44,1.38.69.44.25.86.49,1.26.69.4.21.79.31,1.15.31.55,0,.96-.17,1.23-.5.27-.33.49-.85.66-1.55h1.67c-.15,1.37-.54,2.44-1.17,3.21-.63.77-1.48,1.16-2.54,1.16ZM521.63,24.57c1.74,0,3.11-.48,4.1-1.44.99-.96,1.49-2.3,1.49-4.03v-1.68l-2.8.12c-2.22.08-3.83.43-4.81,1.04-.98.62-1.47,1.57-1.47,2.87,0,1.02.31,1.79.92,2.32.61.53,1.47.8,2.57.8Z"/>
        <path class="cls-1" d="M551.73,17.25c0,3.03-.76,5.39-2.27,7.09-1.52,1.7-3.61,2.55-6.29,2.55-1.65,0-3.12-.39-4.4-1.17-1.28-.78-2.27-1.9-2.97-3.36-.7-1.46-1.04-3.16-1.04-5.12,0-3.03.75-5.39,2.26-7.07,1.51-1.69,3.59-2.53,6.27-2.53s4.64.86,6.16,2.59c1.52,1.73,2.28,4.07,2.28,7.01ZM537.66,17.25c0,2.37.47,4.18,1.42,5.42.94,1.24,2.33,1.86,4.16,1.86s3.22-.62,4.17-1.86c.95-1.24,1.42-3.05,1.42-5.43s-.47-4.15-1.42-5.38c-.95-1.23-2.35-1.84-4.2-1.84s-3.21.6-4.15,1.81c-.93,1.21-1.4,3.01-1.4,5.41Z"/>
      </g>
      <g>
        <path class="cls-1" d="M211.02,55.86c0,4-1.18,7.09-3.54,9.27-2.36,2.18-5.71,3.27-10.05,3.27h-2.72v11.88h-9.67v-35.8h12.39c4.52,0,7.92.99,10.19,2.96,2.27,1.98,3.4,4.78,3.4,8.42ZM194.72,60.51h1.76c1.45,0,2.61-.41,3.46-1.22.86-.82,1.29-1.94,1.29-3.38,0-2.42-1.34-3.62-4.02-3.62h-2.5v8.23Z"/>
        <path class="cls-1" d="M226.4,67.24v13.03h-9.67v-35.8h11.73c9.73,0,14.59,3.53,14.59,10.58,0,4.15-2.02,7.35-6.07,9.62l10.43,15.6h-10.97l-7.59-13.03h-2.45ZM226.4,59.97h1.81c3.38,0,5.07-1.49,5.07-4.48,0-2.46-1.66-3.7-4.97-3.7h-1.91v8.18Z"/>
        <path class="cls-1" d="M284.16,62.32c0,6.02-1.48,10.6-4.43,13.74-2.95,3.13-7.28,4.7-12.98,4.7s-9.92-1.57-12.92-4.73c-3-3.15-4.49-7.74-4.49-13.76s1.49-10.51,4.47-13.65c2.98-3.14,7.31-4.71,12.99-4.71s10.01,1.56,12.95,4.68c2.94,3.12,4.41,7.7,4.41,13.74ZM259.53,62.32c0,6.92,2.41,10.38,7.22,10.38,2.45,0,4.26-.84,5.45-2.52,1.18-1.68,1.78-4.3,1.78-7.86s-.6-6.21-1.8-7.92c-1.2-1.71-2.99-2.56-5.37-2.56-4.85,0-7.27,3.49-7.27,10.48Z"/>
        <path class="cls-1" d="M300.15,80.27h-9.52v-35.8h21.15v7.76h-11.63v6.83h10.72v7.76h-10.72v13.44Z"/>
        <path class="cls-1" d="M317.65,80.27v-35.8h9.72v35.8h-9.72Z"/>
        <path class="cls-1" d="M358.52,69.4c0,2.22-.56,4.19-1.69,5.91-1.13,1.72-2.75,3.06-4.87,4.02-2.12.95-4.61,1.43-7.47,1.43-2.38,0-4.38-.17-6-.5-1.62-.33-3.3-.92-5.04-1.75v-8.62c1.84.95,3.76,1.69,5.75,2.22,1.99.53,3.82.8,5.48.8,1.44,0,2.49-.25,3.16-.75.67-.5,1-1.14,1-1.92,0-.49-.13-.92-.4-1.29-.27-.37-.7-.74-1.3-1.11-.6-.38-2.18-1.14-4.76-2.3-2.33-1.06-4.09-2.09-5.25-3.09-1.17-1-2.03-2.14-2.6-3.43-.56-1.29-.84-2.82-.84-4.58,0-3.3,1.2-5.87,3.6-7.71,2.4-1.84,5.7-2.77,9.89-2.77,3.71,0,7.48.86,11.34,2.57l-2.96,7.47c-3.35-1.53-6.24-2.3-8.67-2.3-1.26,0-2.17.22-2.74.66-.57.44-.86.99-.86,1.64,0,.7.36,1.33,1.09,1.89.73.56,2.7,1.57,5.91,3.04,3.09,1.39,5.23,2.88,6.43,4.47,1.2,1.59,1.8,3.6,1.8,6.01Z"/>
        <path class="cls-1" d="M387.46,69.4c0,2.22-.56,4.19-1.69,5.91-1.13,1.72-2.75,3.06-4.87,4.02-2.12.95-4.61,1.43-7.47,1.43-2.38,0-4.38-.17-6-.5-1.62-.33-3.3-.92-5.04-1.75v-8.62c1.84.95,3.76,1.69,5.75,2.22,1.99.53,3.82.8,5.48.8,1.44,0,2.49-.25,3.16-.75.67-.5,1-1.14,1-1.92,0-.49-.13-.92-.4-1.29-.27-.37-.7-.74-1.3-1.11-.6-.38-2.18-1.14-4.76-2.3-2.33-1.06-4.09-2.09-5.25-3.09-1.17-1-2.03-2.14-2.6-3.43-.56-1.29-.84-2.82-.84-4.58,0-3.3,1.2-5.87,3.6-7.71,2.4-1.84,5.7-2.77,9.89-2.77,3.71,0,7.48.86,11.34,2.57l-2.96,7.47c-3.35-1.53-6.24-2.3-8.67-2.3-1.26,0-2.17.22-2.74.66-.57.44-.86.99-.86,1.64,0,.7.36,1.33,1.09,1.89.73.56,2.7,1.57,5.91,3.04,3.09,1.39,5.23,2.88,6.43,4.47,1.2,1.59,1.8,3.6,1.8,6.01Z"/>
        <path class="cls-1" d="M392.99,80.27v-35.8h9.72v35.8h-9.72Z"/>
        <path class="cls-1" d="M443.95,62.32c0,6.02-1.48,10.6-4.43,13.74-2.95,3.13-7.28,4.7-12.98,4.7s-9.92-1.57-12.92-4.73c-3-3.15-4.49-7.74-4.49-13.76s1.49-10.51,4.47-13.65c2.98-3.14,7.31-4.71,12.99-4.71s10.01,1.56,12.95,4.68c2.94,3.12,4.41,7.7,4.41,13.74ZM419.31,62.32c0,6.92,2.41,10.38,7.22,10.38,2.45,0,4.26-.84,5.45-2.52,1.18-1.68,1.78-4.3,1.78-7.86s-.6-6.21-1.8-7.92c-1.2-1.71-2.99-2.56-5.37-2.56-4.85,0-7.27,3.49-7.27,10.48Z"/>
        <path class="cls-1" d="M484.49,80.27h-12.68l-13.07-25.22h-.22c.31,3.97.47,6.99.47,9.08v16.14h-8.57v-35.8h12.63l13.03,24.88h.15c-.23-3.61-.34-6.5-.34-8.69v-16.18h8.62v35.8Z"/>
        <path class="cls-1" d="M514.19,80.27l-1.76-6.71h-11.63l-1.81,6.71h-10.63l11.68-35.94h12.9l11.83,35.94h-10.58ZM510.42,65.62l-1.54-5.88c-.36-1.31-.8-3-1.31-5.07-.51-2.07-.85-3.56-1.02-4.46-.15.83-.44,2.2-.87,4.11-.43,1.91-1.39,5.67-2.88,11.29h7.61Z"/>
        <path class="cls-1" d="M528.64,80.27v-35.8h9.67v27.99h13.78v7.81h-23.46Z"/>
      </g>
      <g>
        <path class="cls-1" d="M185.04,195.2v-103.18h27.88v80.67h39.73v22.51h-67.61Z"/>
        <path class="cls-1" d="M330.43,195.2h-61.26v-103.18h61.26v22.37h-33.38v16.23h30.91v22.37h-30.91v19.48h33.38v22.73Z"/>
        <path class="cls-1" d="M411.81,195.2l-5.08-19.34h-33.52l-5.22,19.34h-30.63l33.67-103.61h37.19l34.09,103.61h-30.49ZM400.94,152.99l-4.45-16.94c-1.04-3.76-2.29-8.63-3.78-14.61-1.48-5.97-2.46-10.26-2.93-12.85-.42,2.4-1.26,6.35-2.51,11.86-1.25,5.5-4.01,16.35-8.29,32.54h21.95Z"/>
        <path class="cls-1" d="M551.69,195.2h-36.56l-37.69-72.69h-.64c.89,11.43,1.34,20.16,1.34,26.18v46.51h-24.7v-103.18h36.42l37.55,71.71h.42c-.66-10.4-.99-18.75-.99-25.05v-46.65h24.84v103.18Z"/>
      </g>
    </g>
  </g>
</svg>